<svg xmlns="http://www.w3.org/2000/svg" viewBox="0 0 1200 800" preserveAspectRatio="xMidYMid slice">
  <rect width="1200" height="800" fill="#fdfaf2"/>
  <g stroke="#2a1a0a" stroke-width="3" fill="none" stroke-linecap="round" stroke-linejoin="round" opacity="0.85">
    <path d="M 200 600 C 260 540, 380 540, 460 600"/>
    <path d="M 200 600 L 200 660 C 220 700, 440 700, 460 660 L 460 600"/>
    <path d="M 460 620 C 520 620, 540 660, 510 680"/>
    <path d="M 280 540 C 280 510, 320 510, 320 540"/>
    <path d="M 295 510 L 285 460"/>
    <g opacity="0.7">
      <path d="M 290 470 Q 286 450, 282 430"/>
      <path d="M 300 470 Q 304 445, 308 420"/>
      <path d="M 310 470 Q 316 450, 322 430"/>
    </g>
    <path d="M 700 350 L 880 350 L 880 670 L 700 670 Z"/>
    <line x1="700" y1="430" x2="880" y2="430"/>
    <line x1="700" y1="510" x2="880" y2="510"/>
    <line x1="700" y1="590" x2="880" y2="590"/>
    <circle cx="690" cy="510" r="4" fill="#2a1a0a"/>
    <path d="M 900 380 L 940 360 L 1020 440 L 980 460 Z"/>
    <line x1="940" y1="360" x2="980" y2="380"/>
    <line x1="980" y1="380" x2="1020" y2="440"/>
  </g>
  <g stroke="#7a5a3a" stroke-width="2" fill="none" opacity="0.5">
    <path d="M 120 130 C 180 110, 240 130, 300 110"/>
    <path d="M 320 130 C 380 110, 440 130, 500 115"/>
    <path d="M 100 180 C 160 165, 240 180, 320 165"/>
  </g>
</svg>
