<svg xmlns="http://www.w3.org/2000/svg" viewBox="0 0 1200 800" preserveAspectRatio="xMidYMid slice">
  <defs>
    <linearGradient id="sky" x1="0" y1="0" x2="0" y2="1">
      <stop offset="0%" stop-color="#4a3a55"/>
      <stop offset="60%" stop-color="#7a5a55"/>
      <stop offset="100%" stop-color="#3a2a2a"/>
    </linearGradient>
    <radialGradient id="lamp" cx="0.5" cy="0.5" r="0.5">
      <stop offset="0%" stop-color="#ffe8a8"/>
      <stop offset="60%" stop-color="#ffd060" stop-opacity="0.4"/>
      <stop offset="100%" stop-color="#ffd060" stop-opacity="0"/>
    </radialGradient>
  </defs>
  <rect width="1200" height="800" fill="url(#sky)"/>
  <rect x="0" y="540" width="1200" height="260" fill="#1a0f1a"/>
  <g fill="#2a1525">
    <rect x="80"  y="280" width="180" height="280"/>
    <rect x="280" y="220" width="220" height="340"/>
    <rect x="520" y="300" width="160" height="260"/>
    <rect x="700" y="240" width="200" height="320"/>
    <rect x="920" y="290" width="200" height="270"/>
  </g>
  <g fill="#ffd060" opacity="0.85">
    <rect x="120" y="320" width="20" height="22"/>
    <rect x="160" y="320" width="20" height="22"/>
    <rect x="120" y="370" width="20" height="22"/>
    <rect x="320" y="280" width="22" height="24"/>
    <rect x="360" y="280" width="22" height="24"/>
    <rect x="400" y="280" width="22" height="24"/>
    <rect x="320" y="340" width="22" height="24"/>
    <rect x="400" y="340" width="22" height="24"/>
    <rect x="540" y="350" width="18" height="22"/>
    <rect x="580" y="350" width="18" height="22"/>
    <rect x="720" y="280" width="22" height="22"/>
    <rect x="780" y="280" width="22" height="22"/>
    <rect x="840" y="280" width="22" height="22"/>
    <rect x="720" y="340" width="22" height="22"/>
    <rect x="840" y="340" width="22" height="22"/>
    <rect x="940" y="330" width="22" height="22"/>
    <rect x="980" y="330" width="22" height="22"/>
    <rect x="1060" y="330" width="22" height="22"/>
  </g>
  <circle cx="220" cy="600" r="180" fill="url(#lamp)"/>
  <rect x="216" y="540" width="8" height="80" fill="#1a0f1a"/>
  <circle cx="222" cy="538" r="14" fill="#ffe8a8"/>
  <circle cx="900" cy="620" r="200" fill="url(#lamp)" opacity="0.7"/>
  <rect x="896" y="540" width="8" height="100" fill="#1a0f1a"/>
  <circle cx="902" cy="538" r="14" fill="#ffe8a8"/>
  <g fill="#aac6e0" opacity="0.35">
    <rect x="0" y="700" width="1200" height="2"/>
  </g>
</svg>
